# xmcd
#
# Track frame offsets: 
#        150
#        14515
#        30603
#        48348
#        65613
#        81376
#        94882
#        114076
#        126984
#        145211
#        157930
#        170598
#        181963
#
# Disc length: 2643 seconds
#
# Revision: 0
# Processed by: cddbd v1.5.2PL0 Copyright (c) Steve Scherf et al.
# Submitted via: ExactAudioCopyFreeDBPlugin 1.0
#
DISCID=ac0a510d
DTITLE=Various Artist - Fat Possum Sampler 2018
DYEAR=2018
DGENRE=Blues
TTITLE0=Soccer Mommy - Cool
TTITLE1=Insecure Men - I Don't Wanna Dance
TTITLE2=Royal Trux - I'm Ready
TTITLE3=Districts, The - Nighttime Girls
TTITLE4=Courtney Marie Andrews - Kindness of Strangers
TTITLE5=Alex Chilton - Johnny Too Bad
TTITLE6=Kadhja Bonet - Mother Maybe
TTITLE7=Melody's Echo Chamber - Breathe In, Breathe Out
TTITLE8=Marie/Lepanto - Inverness
TTITLE9=Theotis Taylor - Something Within Me
TTITLE10=Liz Brasher - Body of Mine
TTITLE11=J.D. Wilkes - Rain and Snow
TTITLE12=Bash and Pop (feat. Nicole Atkins) - Too Late
EXTD=
EXTT0=
EXTT1=
EXTT2=
EXTT3=
EXTT4=
EXTT5=
EXTT6=
EXTT7=
EXTT8=
EXTT9=
EXTT10=
EXTT11=
EXTT12=
PLAYORDER=
